<svg width="1920" height="80" viewBox="0 0 1920 80" fill="none" xmlns="http://www.w3.org/2000/svg">
<path d="M221.325 37.0576H216.99V51.9213H221.325V37.0576Z" fill="white"/>
<path d="M221.325 31.4375H216.99V34.9399H221.325V31.4375Z" fill="white"/>
<path d="M209.368 31.4375H207.94L202.844 45.5763L197.785 31.4375H196.335H192V51.9208H196.335V38.5715L201.502 51.9208H204.258L209.368 38.5858V51.9208H213.696V31.4375H209.368Z" fill="white"/>
<path d="M228.517 39.634V37.0862H224.182V51.9498H228.517V43.3446C228.517 43.3446 228.653 40.0862 233.498 40.4163V37.0575C233.498 37.0575 229.723 36.9355 228.517 39.634Z" fill="white"/>
<path d="M242.175 37.0859C235.844 37.0859 235.615 40.696 235.615 42.0094H239.175C239.175 42.0094 239.124 39.6123 242.053 39.6123C244.981 39.6123 244.902 41.3276 244.902 41.5285C244.902 41.7295 244.852 43.0716 240.969 43.4591C237.086 43.8467 234.94 44.9591 234.94 47.9089C234.94 50.8587 237.237 51.9209 240.215 51.9209C243.194 51.9209 244.909 50.1051 244.909 50.1051V51.9209H248.541V40.7175C248.541 40.7175 248.512 37.0859 242.182 37.0859H242.175ZM244.715 45.928C244.715 46.6816 244.536 47.4424 244.141 48.0812C243.689 48.8132 242.914 49.6386 241.529 49.8611C240.395 50.0405 239.749 49.6457 239.383 49.1577C238.773 48.3467 238.88 47.184 239.584 46.4663C240.294 45.7414 241.751 44.9807 244.722 44.9161V45.9209L244.715 45.928Z" fill="white"/>
<path d="M258.689 49.2079C256.278 49.2079 254.9 47.83 254.9 45.5907H265.701C265.701 45.5907 265.572 37.0859 258.388 37.0859C251.203 37.0859 251.203 44.2989 251.203 45.4185C251.203 46.5381 252.194 52.3874 258.452 52.3874C264.711 52.3874 265.701 47.141 265.701 47.141H261.567C261.567 47.141 261.093 49.2079 258.682 49.2079H258.689ZM258.258 39.9137C261.66 39.9137 261.66 43.4591 261.66 43.4591H254.864C254.864 43.4591 254.864 39.9137 258.266 39.9137H258.258Z" fill="white"/>
<path d="M332.333 49.2079C329.921 49.2079 328.543 47.83 328.543 45.5907H339.345C339.345 45.5907 339.215 37.0859 332.031 37.0859C324.847 37.0859 324.847 44.2989 324.847 45.4185C324.847 46.5381 325.837 52.3874 332.096 52.3874C338.354 52.3874 339.345 47.141 339.345 47.141H335.211C335.211 47.141 334.737 49.2079 332.325 49.2079H332.333ZM331.902 39.9137C335.304 39.9137 335.304 43.4591 335.304 43.4591H328.507C328.507 43.4591 328.507 39.9137 331.909 39.9137H331.902Z" fill="white"/>
<path d="M285.84 31.481H282.093L274.177 51.9283H278.311L280.077 46.9762H287.519L289.199 51.9283H293.849L285.847 31.481H285.84ZM281.096 44.1197L283.816 36.5551L286.5 44.1125L281.096 44.1269V44.1197Z" fill="white"/>
<path d="M294.474 46.9617H298.263C298.263 46.9617 298.263 49.8613 301.392 49.8613C304.521 49.8613 304.163 47.8876 304.163 47.5215C304.163 47.1555 303.108 46.201 301.098 45.8062C299.088 45.4115 294.84 44.4211 294.84 41.3565C294.84 38.2919 297.28 37.0718 301.069 37.0718C304.859 37.0718 307.694 39.4474 307.694 41.1914H303.474C303.474 41.1914 303.208 39.4474 301.084 39.4474C298.959 39.4474 298.895 40.6675 298.895 41.1627C298.895 41.6579 299.225 42.8134 304.299 43.4665C309.373 44.1196 309.208 51.9211 301.923 51.9211C294.639 51.9211 294.474 46.9617 294.474 46.9617Z" fill="white"/>
<path d="M309.61 46.9617H313.4C313.4 46.9617 313.4 49.8613 316.529 49.8613C319.658 49.8613 319.299 47.8876 319.299 47.5215C319.299 47.1555 318.244 46.201 316.235 45.8062C314.225 45.4115 309.976 44.4211 309.976 41.3565C309.976 38.2919 312.416 37.0718 316.206 37.0718C319.995 37.0718 322.83 39.4474 322.83 41.1914H318.61C318.61 41.1914 318.345 39.4474 316.22 39.4474C314.096 39.4474 314.031 40.6675 314.031 41.1627C314.031 41.6579 314.361 42.8134 319.435 43.4665C324.51 44.1196 324.345 51.9211 317.06 51.9211C309.775 51.9211 309.61 46.9617 309.61 46.9617Z" fill="white"/>
<path d="M349.816 40.2152V37.3659H347.017V32.7798H342.682V37.3587H340.256V40.208H342.682V47.6434C342.682 47.6434 342.179 51.9209 345.452 51.9209H349.816V48.885C349.816 48.885 347.017 49.4807 347.017 47.6506V40.2152H349.816Z" fill="white"/>
<path d="M359.742 42.096C359.742 47.2347 363.56 52.3879 370.084 52.3879C376.608 52.3879 376.335 50.4214 376.335 50.4214L375.158 47.6438C375.158 47.6438 363.84 51.3974 363.84 42.3687C363.84 33.34 370.852 34.108 374.046 34.8041L375.431 32.0984C375.431 32.0984 360.502 27.3759 359.742 42.096Z" fill="white"/>
<path d="M398.411 31.3804V51.921H402.581V35.5072L410.749 51.921H416.541V31.3804H412.608V47.744L403.995 31.3804H398.411Z" fill="white"/>
<path d="M436.636 31.3804H420.811V34.9186H426.158V51.921H430.5V34.9186H434.806L436.636 31.3804Z" fill="white"/>
<path d="M444.287 43.1651H451.593V39.4761H445.507L444.287 40.9545V34.8684H451.191L452.663 31.4306H444.287V31.3804H440.081V31.4306V34.8684V48.4832V49.811V51.921H451.191L452.663 48.4832H444.287V43.1651Z" fill="white"/>
<path d="M385.012 43.1651H392.318V39.4761H386.232L385.012 40.9545V34.8684H391.916L393.387 31.4306H385.012V31.3804H380.806V31.4306V34.8684V48.4832V49.811V51.921H391.916L393.387 48.4832H385.012V43.1651Z" fill="white"/>
<path d="M470.045 48.4834L466.651 43.0648C468.71 42.4762 471.143 41.0049 471.143 37.3734C471.143 31.0648 465.079 31.3805 465.079 31.3805H457.615V51.9212H461.82V43.4595H462.631L467.842 51.9212H471.588L473.34 48.4834H470.038H470.045ZM461.82 40.5959V34.8686H464.67C464.67 34.8686 467.684 34.7825 467.684 37.4164C467.684 40.0504 465.323 40.5887 464.756 40.5887H461.828L461.82 40.5959Z" fill="white"/>
<path d="M478.651 30.8445L483.732 26.2871H485.447V34.39C485.447 34.39 484.048 34.5479 484.048 36.945C484.048 39.3421 485.447 39.4354 485.447 39.4354V47.8972H479.024V46.8637L483.057 45.1555V30.2345L481.672 30.8445H478.651Z" fill="white"/>
<path d="M486.208 26.2871H488.289V45.1555L491.871 46.8637V47.8972H486.208V39.012C486.208 39.012 484.794 38.6962 484.794 36.8876C484.794 35.079 485.454 34.9283 486.208 34.5909V26.2871Z" fill="white"/>
<path d="M645.162 45.08H642.662V31.3H645.162V45.08ZM638.982 37.64H636.802V35.5H638.982V31.62H641.442V44.54H638.982V37.64ZM637.002 42.28C636.282 41.9333 635.676 41.4867 635.182 40.94C634.702 40.3933 634.316 39.7733 634.022 39.08C633.689 39.8667 633.249 40.5733 632.702 41.2C632.156 41.8267 631.476 42.3333 630.662 42.72L629.222 40.72C629.849 40.4133 630.382 40.04 630.822 39.6C631.262 39.16 631.622 38.6867 631.902 38.18C632.182 37.66 632.382 37.12 632.502 36.56C632.636 36 632.702 35.4467 632.702 34.9V32.54H635.262V34.9C635.262 35.4467 635.316 35.98 635.422 36.5C635.542 37.02 635.729 37.5133 635.982 37.98C636.236 38.4333 636.562 38.86 636.962 39.26C637.376 39.6467 637.869 39.98 638.442 40.26L637.002 42.28ZM645.622 47.3V49.4H632.762V43.48H635.402V47.3H645.622ZM651.121 43.46C652.361 43.4467 653.514 43.4133 654.581 43.36C655.647 43.2933 656.747 43.1667 657.881 42.98L658.121 45.1C657.454 45.2067 656.801 45.2933 656.161 45.36C655.521 45.4133 654.874 45.46 654.221 45.5C653.567 45.5267 652.894 45.5467 652.201 45.56C651.507 45.5733 650.774 45.58 650.001 45.58H648.501V32.84H657.021V34.96H651.121V37.96H656.401V40.02H651.121V43.46ZM663.121 31.28V49.76H660.481V39.9H657.321V37.78H660.481V31.28H663.121ZM678.719 42V31.3H681.359V45.26H678.719V43.8H675.259V42H678.719ZM671.719 33.84C671.093 33.84 670.586 33.96 670.199 34.2C669.813 34.4267 669.619 34.7667 669.619 35.22C669.619 35.6733 669.813 36.0133 670.199 36.24C670.586 36.4667 671.093 36.58 671.719 36.58C672.333 36.58 672.833 36.4667 673.219 36.24C673.606 36.0133 673.799 35.6733 673.799 35.22C673.799 34.7667 673.606 34.4267 673.219 34.2C672.833 33.96 672.333 33.84 671.719 33.84ZM671.719 38.5C671.039 38.5 670.419 38.42 669.859 38.26C669.299 38.1 668.813 37.88 668.399 37.6C667.999 37.3067 667.686 36.96 667.459 36.56C667.233 36.16 667.119 35.7133 667.119 35.22C667.119 34.7267 667.233 34.28 667.459 33.88C667.686 33.48 667.999 33.1333 668.399 32.84C668.813 32.5467 669.299 32.32 669.859 32.16C670.419 32 671.039 31.92 671.719 31.92C672.386 31.92 672.999 32 673.559 32.16C674.119 32.32 674.599 32.5467 674.999 32.84C675.413 33.1333 675.733 33.48 675.959 33.88C676.186 34.28 676.299 34.7267 676.299 35.22C676.299 35.7133 676.186 36.16 675.959 36.56C675.733 36.96 675.413 37.3067 674.999 37.6C674.599 37.88 674.119 38.1 673.559 38.26C672.999 38.42 672.386 38.5 671.719 38.5ZM681.759 47.3V49.4H668.099V43.92H670.659V41.46C669.846 41.5 669.059 41.5267 668.299 41.54C667.539 41.5533 666.813 41.56 666.119 41.56L665.779 39.46C666.619 39.46 667.519 39.4533 668.479 39.44C669.439 39.4267 670.426 39.4 671.439 39.36C672.453 39.32 673.473 39.2667 674.499 39.2C675.526 39.12 676.526 39.02 677.499 38.9L677.679 40.78C676.959 40.9133 676.233 41.02 675.499 41.1C674.766 41.18 674.026 41.2467 673.279 41.3V44.78H670.739V47.3H681.759Z" fill="white"/>
<path d="M803.623 31.28V49.76H800.983V31.28H803.623ZM793.723 32.58C794.416 32.58 795.056 32.7333 795.643 33.04C796.243 33.3467 796.756 33.7867 797.183 34.36C797.61 34.92 797.943 35.6067 798.183 36.42C798.436 37.22 798.563 38.1267 798.563 39.14C798.563 40.1533 798.436 41.0667 798.183 41.88C797.943 42.6933 797.61 43.3867 797.183 43.96C796.756 44.5333 796.243 44.9733 795.643 45.28C795.056 45.5867 794.416 45.74 793.723 45.74C793.03 45.74 792.383 45.5867 791.783 45.28C791.196 44.9733 790.69 44.5333 790.263 43.96C789.836 43.3867 789.496 42.6933 789.243 41.88C789.003 41.0667 788.883 40.1533 788.883 39.14C788.883 38.1267 789.003 37.22 789.243 36.42C789.496 35.6067 789.836 34.92 790.263 34.36C790.69 33.7867 791.196 33.3467 791.783 33.04C792.383 32.7333 793.03 32.58 793.723 32.58ZM793.723 34.96C793.043 34.96 792.49 35.3133 792.063 36.02C791.636 36.7267 791.423 37.7667 791.423 39.14C791.423 40.5133 791.636 41.56 792.063 42.28C792.49 42.9867 793.043 43.34 793.723 43.34C794.403 43.34 794.956 42.9867 795.383 42.28C795.81 41.56 796.023 40.5133 796.023 39.14C796.023 37.7667 795.81 36.7267 795.383 36.02C794.956 35.3133 794.403 34.96 793.723 34.96ZM814.842 47.74C817.322 47.74 818.562 47.2867 818.562 46.38C818.562 45.9133 818.248 45.5733 817.622 45.36C817.008 45.1467 816.082 45.04 814.842 45.04C813.602 45.04 812.668 45.1467 812.042 45.36C811.428 45.5733 811.122 45.9133 811.122 46.38C811.122 47.2867 812.362 47.74 814.842 47.74ZM814.842 43.04C815.842 43.04 816.735 43.1133 817.522 43.26C818.308 43.4067 818.975 43.6267 819.522 43.92C820.082 44.2 820.508 44.5467 820.802 44.96C821.095 45.3733 821.242 45.8467 821.242 46.38C821.242 46.9133 821.095 47.3933 820.802 47.82C820.508 48.2333 820.082 48.58 819.522 48.86C818.975 49.1533 818.308 49.3733 817.522 49.52C816.735 49.6667 815.842 49.74 814.842 49.74C813.842 49.74 812.948 49.6667 812.162 49.52C811.375 49.3733 810.708 49.1533 810.162 48.86C809.615 48.58 809.195 48.2333 808.902 47.82C808.608 47.3933 808.462 46.9133 808.462 46.38C808.462 45.8467 808.608 45.3733 808.902 44.96C809.195 44.5467 809.615 44.2 810.162 43.92C810.708 43.6267 811.375 43.4067 812.162 43.26C812.948 43.1133 813.842 43.04 814.842 43.04ZM812.942 40.04H816.782V38.52C816.488 38.5467 816.182 38.5733 815.862 38.6C815.555 38.6133 815.228 38.62 814.882 38.62C814.188 38.62 813.542 38.58 812.942 38.5V40.04ZM814.882 33.58C813.628 33.58 812.655 33.7067 811.962 33.96C811.282 34.2133 810.942 34.6 810.942 35.12C810.942 35.6267 811.282 36.0067 811.962 36.26C812.655 36.5133 813.628 36.64 814.882 36.64C816.148 36.64 817.122 36.5133 817.802 36.26C818.495 36.0067 818.842 35.6267 818.842 35.12C818.842 34.6 818.495 34.2133 817.802 33.96C817.122 33.7067 816.148 33.58 814.882 33.58ZM823.202 40.04V42.12H806.562V40.04H810.302V37.82C809.635 37.5133 809.122 37.14 808.762 36.7C808.402 36.2467 808.222 35.72 808.222 35.12C808.222 34.5733 808.375 34.08 808.682 33.64C809.002 33.2 809.448 32.8267 810.022 32.52C810.608 32.2133 811.308 31.98 812.122 31.82C812.948 31.66 813.868 31.58 814.882 31.58C815.895 31.58 816.815 31.66 817.642 31.82C818.468 31.98 819.168 32.2133 819.742 32.52C820.328 32.8267 820.775 33.2 821.082 33.64C821.402 34.08 821.562 34.5733 821.562 35.12C821.562 35.72 821.375 36.2467 821.002 36.7C820.628 37.1533 820.102 37.5333 819.422 37.84V40.04H823.202ZM827.48 37.16C827.48 37.92 827.707 38.5133 828.16 38.94C828.627 39.3533 829.207 39.56 829.9 39.56C830.58 39.56 831.153 39.3533 831.62 38.94C832.087 38.5133 832.32 37.92 832.32 37.16C832.32 36.4 832.087 35.8133 831.62 35.4C831.153 34.9733 830.58 34.76 829.9 34.76C829.207 34.76 828.627 34.9733 828.16 35.4C827.707 35.8133 827.48 36.4 827.48 37.16ZM834.88 37.16C834.88 37.84 834.753 38.4667 834.5 39.04C834.247 39.6 833.893 40.0933 833.44 40.52C832.987 40.9333 832.453 41.26 831.84 41.5C831.24 41.7267 830.593 41.84 829.9 41.84C829.193 41.84 828.533 41.7267 827.92 41.5C827.32 41.26 826.793 40.9333 826.34 40.52C825.887 40.0933 825.533 39.6 825.28 39.04C825.027 38.4667 824.9 37.84 824.9 37.16C824.9 36.48 825.027 35.8533 825.28 35.28C825.533 34.7067 825.887 34.2133 826.34 33.8C826.793 33.3867 827.32 33.0667 827.92 32.84C828.533 32.6 829.193 32.48 829.9 32.48C830.593 32.48 831.24 32.6 831.84 32.84C832.453 33.0667 832.987 33.3867 833.44 33.8C833.893 34.2133 834.247 34.7067 834.5 35.28C834.753 35.8533 834.88 36.48 834.88 37.16ZM830.02 47.3H839.92V49.4H827.38V43.32H830.02V47.3ZM841.7 36.58V38.74H839.26V44.7H836.62V31.3H839.26V36.58H841.7ZM846.318 42.96C847.038 42.9333 847.792 42.8867 848.578 42.82C849.378 42.7533 850.218 42.64 851.098 42.48L851.318 44.7C850.105 44.9267 848.972 45.0733 847.918 45.14C846.865 45.2067 845.878 45.24 844.958 45.24H843.678V33.34H846.318V42.96ZM858.738 31.28V49.7H856.218V40.52H854.558V48.84H852.098V31.62H854.558V38.38H856.218V31.28H858.738Z" fill="white"/>
<path d="M954.184 35.38C954.184 36.2467 954.271 37.1 954.444 37.94C954.617 38.78 954.877 39.5667 955.224 40.3C955.584 41.02 956.037 41.6667 956.584 42.24C957.144 42.8133 957.804 43.2667 958.564 43.6L957.004 45.7C955.991 45.2067 955.144 44.5333 954.464 43.68C953.797 42.8133 953.271 41.82 952.884 40.7C952.484 41.8867 951.937 42.94 951.244 43.86C950.551 44.78 949.684 45.5 948.644 46.02L947.004 43.9C947.777 43.54 948.451 43.06 949.024 42.46C949.597 41.8467 950.064 41.1667 950.424 40.42C950.797 39.66 951.071 38.8533 951.244 38C951.431 37.1333 951.524 36.26 951.524 35.38V32.72H954.184V35.38ZM962.724 31.28V49.76H960.084V39.18H956.544V37.06H960.084V31.28H962.724ZM980.722 31.28V49.76H978.082V31.28H980.722ZM968.982 32.76V37.22H972.822V32.76H975.442V45.46H966.362V32.76H968.982ZM968.982 43.36H972.822V39.28H968.982V43.36ZM998.641 42.18C997.027 41.86 995.647 41.28 994.501 40.44C993.367 39.6 992.501 38.5933 991.901 37.42C991.301 38.5933 990.434 39.6067 989.301 40.46C988.167 41.3 986.794 41.8733 985.181 42.18L984.061 39.98C985.101 39.8067 986.021 39.5067 986.821 39.08C987.621 38.64 988.294 38.1333 988.841 37.56C989.387 36.9867 989.801 36.3667 990.081 35.7C990.361 35.0333 990.501 34.3667 990.501 33.7V32.38H993.321V33.7C993.321 34.38 993.461 35.0533 993.741 35.72C994.021 36.3867 994.434 37.0067 994.981 37.58C995.527 38.1533 996.201 38.6533 997.001 39.08C997.801 39.5067 998.721 39.8067 999.761 39.98L998.641 42.18ZM1000.34 45.34V47.48H983.661V45.34H1000.34ZM1016.9 41.88C1015.27 41.5867 1013.88 41.04 1012.72 40.24C1011.57 39.4267 1010.7 38.4467 1010.1 37.3C1009.5 38.4333 1008.63 39.4067 1007.48 40.22C1006.33 41.0333 1004.95 41.5867 1003.34 41.88L1002.26 39.7C1003.3 39.5267 1004.22 39.2333 1005.02 38.82C1005.82 38.4067 1006.49 37.9267 1007.04 37.38C1007.59 36.82 1008 36.22 1008.28 35.58C1008.56 34.9267 1008.7 34.28 1008.7 33.64V32.32H1011.52V33.64C1011.52 34.2933 1011.66 34.9467 1011.94 35.6C1012.22 36.2533 1012.63 36.8533 1013.18 37.4C1013.73 37.9467 1014.4 38.4267 1015.2 38.84C1016 39.24 1016.93 39.5267 1017.98 39.7L1016.9 41.88ZM1018.54 45.42V47.54H1001.86V45.42H1008.8V41.3H1011.44V45.42H1018.54ZM1028.02 33.58C1028.02 34.8733 1027.91 36.1067 1027.7 37.28C1027.48 38.44 1027.12 39.54 1026.62 40.58C1026.11 41.62 1025.42 42.5933 1024.56 43.5C1023.7 44.3933 1022.64 45.2133 1021.36 45.96L1019.82 44.12C1020.74 43.5867 1021.53 43.0133 1022.2 42.4C1022.86 41.7867 1023.42 41.1333 1023.88 40.44C1024.33 39.7467 1024.68 39.0067 1024.92 38.22C1025.17 37.4333 1025.34 36.5867 1025.42 35.68H1020.76V33.58H1028.02ZM1035.84 31.3V49.72H1033.32V40.36H1031.68V48.94H1029.22V31.78H1031.68V38.24H1033.32V31.3H1035.84Z" fill="white"/>
<path d="M1139.66 31.3V41.74H1137V31.3H1139.66ZM1139.66 42.56V49.5H1127.4V42.56H1139.66ZM1130 44.62V47.44H1137.08V44.62H1130ZM1129.64 32.14C1130.36 32.14 1131.02 32.2533 1131.62 32.48C1132.24 32.6933 1132.76 33 1133.2 33.4C1133.66 33.7867 1134.01 34.2533 1134.26 34.8C1134.52 35.3333 1134.64 35.9267 1134.64 36.58C1134.64 37.22 1134.52 37.8133 1134.26 38.36C1134.01 38.9067 1133.66 39.3733 1133.2 39.76C1132.76 40.1467 1132.24 40.4533 1131.62 40.68C1131.02 40.8933 1130.36 41 1129.64 41C1128.92 41 1128.26 40.8933 1127.64 40.68C1127.04 40.4533 1126.52 40.1467 1126.06 39.76C1125.61 39.3733 1125.26 38.9067 1125 38.36C1124.75 37.8133 1124.62 37.22 1124.62 36.58C1124.62 35.9267 1124.75 35.3333 1125 34.8C1125.26 34.2533 1125.61 33.7867 1126.06 33.4C1126.52 33 1127.04 32.6933 1127.64 32.48C1128.26 32.2533 1128.92 32.14 1129.64 32.14ZM1129.64 34.34C1128.94 34.34 1128.35 34.54 1127.88 34.94C1127.43 35.3267 1127.2 35.8733 1127.2 36.58C1127.2 37.2733 1127.43 37.82 1127.88 38.22C1128.35 38.6067 1128.94 38.8 1129.64 38.8C1130.34 38.8 1130.91 38.6067 1131.36 38.22C1131.83 37.82 1132.06 37.2733 1132.06 36.58C1132.06 35.8733 1131.83 35.3267 1131.36 34.94C1130.91 34.54 1130.34 34.34 1129.64 34.34ZM1145.68 43.4C1146.55 43.3733 1147.38 43.3333 1148.18 43.28C1148.99 43.2133 1149.84 43.1 1150.72 42.94L1150.92 45.08C1149.8 45.2933 1148.72 45.4333 1147.68 45.5C1146.64 45.5533 1145.53 45.58 1144.36 45.58H1143.08V33.42H1149.9V35.56H1145.68V43.4ZM1158.36 31.28V49.72H1155.86V40.5H1154.2V48.86H1151.74V31.64H1154.2V38.38H1155.86V31.28H1158.36ZM1172.7 34.14H1165.4V36.86H1172.7V34.14ZM1175.3 38.94H1162.8V32.08H1175.3V38.94ZM1165.32 47.3H1175.58V49.4H1162.68V44.06H1165.32V47.3ZM1177.42 40.4V42.48H1170.64V45.62H1168V42.48H1160.74V40.4H1177.42ZM1184.88 32.52C1185.6 32.52 1186.27 32.6333 1186.88 32.86C1187.51 33.0867 1188.05 33.4 1188.5 33.8C1188.95 34.2 1189.31 34.68 1189.56 35.24C1189.83 35.8 1189.96 36.4067 1189.96 37.06C1189.96 37.7267 1189.83 38.34 1189.56 38.9C1189.31 39.4467 1188.95 39.92 1188.5 40.32C1188.05 40.72 1187.51 41.0333 1186.88 41.26C1186.27 41.4867 1185.6 41.6 1184.88 41.6C1184.16 41.6 1183.49 41.4867 1182.86 41.26C1182.25 41.0333 1181.71 40.72 1181.26 40.32C1180.82 39.92 1180.47 39.4467 1180.2 38.9C1179.95 38.34 1179.82 37.7267 1179.82 37.06C1179.82 36.4067 1179.95 35.8 1180.2 35.24C1180.47 34.68 1180.82 34.2 1181.26 33.8C1181.71 33.4 1182.25 33.0867 1182.86 32.86C1183.49 32.6333 1184.16 32.52 1184.88 32.52ZM1184.88 34.78C1184.16 34.78 1183.56 34.98 1183.08 35.38C1182.61 35.78 1182.38 36.34 1182.38 37.06C1182.38 37.78 1182.61 38.34 1183.08 38.74C1183.56 39.14 1184.16 39.34 1184.88 39.34C1185.6 39.34 1186.19 39.14 1186.66 38.74C1187.14 38.34 1187.38 37.78 1187.38 37.06C1187.38 36.34 1187.14 35.78 1186.66 35.38C1186.19 34.98 1185.6 34.78 1184.88 34.78ZM1194.32 31.28V49.76H1191.68V31.28H1194.32ZM1179.04 43.88C1179.85 43.88 1180.73 43.88 1181.68 43.88C1182.63 43.8667 1183.61 43.84 1184.62 43.8C1185.63 43.76 1186.65 43.7 1187.68 43.62C1188.71 43.54 1189.71 43.4267 1190.68 43.28L1190.84 45.18C1189.85 45.38 1188.85 45.54 1187.82 45.66C1186.81 45.7667 1185.81 45.8467 1184.82 45.9C1183.83 45.9533 1182.88 45.9867 1181.96 46C1181.04 46.0133 1180.18 46.02 1179.38 46.02L1179.04 43.88Z" fill="white"/>
<path d="M1304.06 43.16C1304.41 41.4267 1304.62 39.9 1304.68 38.58C1304.76 37.2467 1304.8 36.0467 1304.8 34.98H1294.06V32.88H1307.44V34.64C1307.44 35.2133 1307.44 35.8133 1307.42 36.44C1307.42 37.0667 1307.4 37.74 1307.34 38.46C1307.3 39.1667 1307.23 39.9333 1307.12 40.76C1307.03 41.5867 1306.89 42.4867 1306.7 43.46L1304.06 43.16ZM1309.04 45.38V47.5H1292.38V45.38H1298.26V39.04H1300.9V45.38H1309.04ZM1318.54 32.58C1318.54 34.9133 1317.98 36.8667 1316.86 38.44C1315.74 40.0133 1313.98 41.2667 1311.58 42.2L1310.36 40.28C1312.08 39.6533 1313.37 38.8733 1314.22 37.94C1315.09 37.0067 1315.61 35.92 1315.8 34.68H1311.24V32.58H1318.54ZM1313.5 42.82H1326.26V49.74H1323.62V44.94H1313.5V42.82ZM1326.26 31.3V42.06H1323.76V37.68H1322.18V42H1319.72V31.62H1322.18V35.56H1323.76V31.3H1326.26ZM1335.88 36.26C1335.88 37.0067 1335.97 37.76 1336.16 38.52C1336.35 39.2667 1336.63 39.9733 1337 40.64C1337.39 41.3067 1337.86 41.9067 1338.42 42.44C1338.99 42.9733 1339.67 43.4 1340.44 43.72L1339 45.8C1337.92 45.3333 1337.01 44.6733 1336.28 43.82C1335.56 42.9667 1334.99 41.98 1334.58 40.86C1334.17 42.0733 1333.59 43.1533 1332.84 44.1C1332.11 45.0467 1331.2 45.7667 1330.12 46.26L1328.62 44.16C1329.39 43.8133 1330.07 43.3533 1330.64 42.78C1331.21 42.2067 1331.69 41.5733 1332.06 40.88C1332.45 40.1733 1332.73 39.4267 1332.92 38.64C1333.11 37.84 1333.2 37.0467 1333.2 36.26V35.24H1329.36V33.06H1339.68V35.24H1335.88V36.26ZM1344.02 31.3V49.72H1341.38V31.3H1344.02ZM1359.82 42V31.3H1362.46V45.26H1359.82V43.8H1356.36V42H1359.82ZM1352.82 33.84C1352.19 33.84 1351.69 33.96 1351.3 34.2C1350.91 34.4267 1350.72 34.7667 1350.72 35.22C1350.72 35.6733 1350.91 36.0133 1351.3 36.24C1351.69 36.4667 1352.19 36.58 1352.82 36.58C1353.43 36.58 1353.93 36.4667 1354.32 36.24C1354.71 36.0133 1354.9 35.6733 1354.9 35.22C1354.9 34.7667 1354.71 34.4267 1354.32 34.2C1353.93 33.96 1353.43 33.84 1352.82 33.84ZM1352.82 38.5C1352.14 38.5 1351.52 38.42 1350.96 38.26C1350.4 38.1 1349.91 37.88 1349.5 37.6C1349.1 37.3067 1348.79 36.96 1348.56 36.56C1348.33 36.16 1348.22 35.7133 1348.22 35.22C1348.22 34.7267 1348.33 34.28 1348.56 33.88C1348.79 33.48 1349.1 33.1333 1349.5 32.84C1349.91 32.5467 1350.4 32.32 1350.96 32.16C1351.52 32 1352.14 31.92 1352.82 31.92C1353.49 31.92 1354.1 32 1354.66 32.16C1355.22 32.32 1355.7 32.5467 1356.1 32.84C1356.51 33.1333 1356.83 33.48 1357.06 33.88C1357.29 34.28 1357.4 34.7267 1357.4 35.22C1357.4 35.7133 1357.29 36.16 1357.06 36.56C1356.83 36.96 1356.51 37.3067 1356.1 37.6C1355.7 37.88 1355.22 38.1 1354.66 38.26C1354.1 38.42 1353.49 38.5 1352.82 38.5ZM1362.86 47.3V49.4H1349.2V43.92H1351.76V41.46C1350.95 41.5 1350.16 41.5267 1349.4 41.54C1348.64 41.5533 1347.91 41.56 1347.22 41.56L1346.88 39.46C1347.72 39.46 1348.62 39.4533 1349.58 39.44C1350.54 39.4267 1351.53 39.4 1352.54 39.36C1353.55 39.32 1354.57 39.2667 1355.6 39.2C1356.63 39.12 1357.63 39.02 1358.6 38.9L1358.78 40.78C1358.06 40.9133 1357.33 41.02 1356.6 41.1C1355.87 41.18 1355.13 41.2467 1354.38 41.3V44.78H1351.84V47.3H1362.86Z" fill="white"/>
<path d="M1705 50C1710.52 50 1715 45.5228 1715 40C1715 34.4771 1710.52 30 1705 30C1699.48 30 1695 34.4771 1695 40C1695 45.5228 1699.48 50 1705 50Z" stroke="white" stroke-width="1.5" stroke-linecap="round" stroke-linejoin="round"/>
<path d="M1705 50V30" stroke="white" stroke-width="1.5" stroke-linecap="round" stroke-linejoin="round"/>
<path d="M1714.95 39C1708.48 41.6667 1702.7 41.6668 1695.05 39" stroke="white" stroke-width="1.5" stroke-linecap="round" stroke-linejoin="round"/>
<path d="M1711.57 32.4624C1708.91 36.9918 1708.9 42.1848 1711.57 47.5378" stroke="white" stroke-width="1.5" stroke-linecap="round" stroke-linejoin="round"/>
<path d="M1698.43 32.4624C1701.1 36.9918 1701.1 42.1848 1698.43 47.5378" stroke="white" stroke-width="1.5" stroke-linecap="round" stroke-linejoin="round"/>
</svg>
